G04 #@! TF.GenerationSoftware,KiCad,Pcbnew,7.0.1-3b83917a11~172~ubuntu22.04.1*
G04 #@! TF.CreationDate,2023-07-24T14:11:42+02:00*
G04 #@! TF.ProjectId,mag_touch2x2,6d61675f-746f-4756-9368-3278322e6b69,rev?*
G04 #@! TF.SameCoordinates,Original*
G04 #@! TF.FileFunction,Copper,L4,Bot*
G04 #@! TF.FilePolarity,Positive*
%FSLAX46Y46*%
G04 Gerber Fmt 4.6, Leading zero omitted, Abs format (unit mm)*
G04 Created by KiCad (PCBNEW 7.0.1-3b83917a11~172~ubuntu22.04.1) date 2023-07-24 14:11:42*
%MOMM*%
%LPD*%
G01*
G04 APERTURE LIST*
G04 #@! TA.AperFunction,ComponentPad*
%ADD10R,2.286000X2.286000*%
G04 #@! TD*
G04 #@! TA.AperFunction,ViaPad*
%ADD11C,0.800000*%
G04 #@! TD*
G04 APERTURE END LIST*
D10*
X32512000Y-44540000D03*
X32512000Y-42000000D03*
X17526000Y-50600000D03*
X17526000Y-48060000D03*
X28810000Y-60100000D03*
X26270000Y-60100000D03*
X23730000Y-60100000D03*
X21190000Y-60100000D03*
X17526000Y-44704000D03*
X17526000Y-42164000D03*
X32512000Y-50470000D03*
X32512000Y-47930000D03*
D11*
X28000000Y-43000000D03*
X28000000Y-49000000D03*
X22000000Y-49000000D03*
X22000000Y-43000000D03*
X19800000Y-54000000D03*
X29600000Y-51800000D03*
X30200000Y-45000500D03*
X19443000Y-48499500D03*
X19386562Y-42829500D03*
X24892000Y-47752000D03*
X26600000Y-53000000D03*
X19200000Y-44600000D03*
X19400000Y-50000000D03*
X20000000Y-45400000D03*
X20400000Y-50800000D03*
X27677511Y-52167561D03*
X26000000Y-45200000D03*
G04 #@! TA.AperFunction,Conductor*
G36*
X33738000Y-33682613D02*
G01*
X33783387Y-33728000D01*
X33800000Y-33790000D01*
X33800000Y-40232500D01*
X33783387Y-40294500D01*
X33738000Y-40339887D01*
X33676000Y-40356500D01*
X31321130Y-40356500D01*
X31261515Y-40362909D01*
X31126669Y-40413204D01*
X31011454Y-40499454D01*
X30925204Y-40614668D01*
X30874909Y-40749516D01*
X30868500Y-40809130D01*
X30868500Y-43190870D01*
X30875582Y-43256745D01*
X30875582Y-43283252D01*
X30868500Y-43349130D01*
X30868500Y-44129751D01*
X30850227Y-44194541D01*
X30800794Y-44240236D01*
X30734770Y-44253369D01*
X30671614Y-44230069D01*
X30652727Y-44216346D01*
X30479802Y-44139355D01*
X30294648Y-44100000D01*
X30294646Y-44100000D01*
X30105354Y-44100000D01*
X30105352Y-44100000D01*
X29920197Y-44139355D01*
X29747269Y-44216348D01*
X29594129Y-44327610D01*
X29467466Y-44468283D01*
X29372820Y-44632215D01*
X29314326Y-44812242D01*
X29294540Y-45000500D01*
X29314326Y-45188757D01*
X29372820Y-45368784D01*
X29467466Y-45532716D01*
X29594129Y-45673389D01*
X29747269Y-45784651D01*
X29920197Y-45861644D01*
X30105352Y-45901000D01*
X30105354Y-45901000D01*
X30294646Y-45901000D01*
X30294648Y-45901000D01*
X30446183Y-45868790D01*
X30479803Y-45861644D01*
X30652730Y-45784651D01*
X30693792Y-45754817D01*
X30745968Y-45732877D01*
X30802461Y-45736410D01*
X30851497Y-45764682D01*
X30882860Y-45811801D01*
X30925204Y-45925331D01*
X31011454Y-46040546D01*
X31126669Y-46126796D01*
X31126670Y-46126796D01*
X31138608Y-46135733D01*
X31175181Y-46179496D01*
X31188297Y-46235000D01*
X31175181Y-46290504D01*
X31138608Y-46334267D01*
X31126670Y-46343203D01*
X31126669Y-46343204D01*
X31093984Y-46367671D01*
X31011454Y-46429453D01*
X30925204Y-46544668D01*
X30874909Y-46679516D01*
X30868500Y-46739130D01*
X30868500Y-49120870D01*
X30875582Y-49186745D01*
X30875582Y-49213252D01*
X30868500Y-49279129D01*
X30868500Y-51660869D01*
X30874909Y-51720484D01*
X30888096Y-51755840D01*
X30925204Y-51855331D01*
X31011454Y-51970546D01*
X31126669Y-52056796D01*
X31261517Y-52107091D01*
X31321127Y-52113500D01*
X33676000Y-52113499D01*
X33738000Y-52130112D01*
X33783387Y-52175499D01*
X33800000Y-52237499D01*
X33800000Y-58073968D01*
X33783050Y-58136549D01*
X33736833Y-58182020D01*
X33673985Y-58197952D01*
X21492000Y-58000000D01*
X21492000Y-58353638D01*
X21482561Y-58401091D01*
X21455681Y-58441319D01*
X21440000Y-58457000D01*
X21440000Y-60226000D01*
X21423387Y-60288000D01*
X21378000Y-60333387D01*
X21316000Y-60350000D01*
X19547000Y-60350000D01*
X19547000Y-60799822D01*
X19529619Y-60863133D01*
X19482350Y-60908696D01*
X19418443Y-60923738D01*
X17090284Y-60838112D01*
X16173442Y-60804392D01*
X16113387Y-60786313D01*
X16069861Y-60741156D01*
X16054000Y-60680477D01*
X16054000Y-59850000D01*
X19547000Y-59850000D01*
X20940000Y-59850000D01*
X20940000Y-58457000D01*
X19999176Y-58457000D01*
X19939624Y-58463402D01*
X19804910Y-58513647D01*
X19689811Y-58599811D01*
X19603647Y-58714910D01*
X19553402Y-58849624D01*
X19547000Y-58909176D01*
X19547000Y-59850000D01*
X16054000Y-59850000D01*
X16054000Y-53000000D01*
X25694540Y-53000000D01*
X25714326Y-53188257D01*
X25772820Y-53368284D01*
X25867466Y-53532216D01*
X25994129Y-53672889D01*
X26147269Y-53784151D01*
X26320197Y-53861144D01*
X26505352Y-53900500D01*
X26505354Y-53900500D01*
X26694646Y-53900500D01*
X26694648Y-53900500D01*
X26818083Y-53874262D01*
X26879803Y-53861144D01*
X27052730Y-53784151D01*
X27205871Y-53672888D01*
X27332533Y-53532216D01*
X27427179Y-53368284D01*
X27485674Y-53188256D01*
X27486637Y-53179098D01*
X27507158Y-53122720D01*
X27551744Y-53082575D01*
X27609958Y-53068061D01*
X27772159Y-53068061D01*
X27895594Y-53041823D01*
X27957314Y-53028705D01*
X28130241Y-52951712D01*
X28283382Y-52840449D01*
X28410044Y-52699777D01*
X28504690Y-52535845D01*
X28563185Y-52355817D01*
X28572254Y-52269523D01*
X28593751Y-52211721D01*
X28640439Y-52171421D01*
X28700766Y-52158598D01*
X28759809Y-52176424D01*
X28802961Y-52220489D01*
X28867466Y-52332216D01*
X28994129Y-52472889D01*
X29147269Y-52584151D01*
X29320197Y-52661144D01*
X29505352Y-52700500D01*
X29505354Y-52700500D01*
X29694646Y-52700500D01*
X29694648Y-52700500D01*
X29818084Y-52674262D01*
X29879803Y-52661144D01*
X30052730Y-52584151D01*
X30205871Y-52472888D01*
X30332533Y-52332216D01*
X30427179Y-52168284D01*
X30485674Y-51988256D01*
X30505460Y-51800000D01*
X30485674Y-51611744D01*
X30447635Y-51494673D01*
X30427179Y-51431715D01*
X30332533Y-51267783D01*
X30205870Y-51127110D01*
X30052730Y-51015848D01*
X29879802Y-50938855D01*
X29694648Y-50899500D01*
X29694646Y-50899500D01*
X29505354Y-50899500D01*
X29505352Y-50899500D01*
X29320197Y-50938855D01*
X29147269Y-51015848D01*
X28994129Y-51127110D01*
X28867466Y-51267783D01*
X28772820Y-51431715D01*
X28714326Y-51611742D01*
X28705257Y-51698033D01*
X28683758Y-51755840D01*
X28637070Y-51796139D01*
X28576743Y-51808962D01*
X28517700Y-51791136D01*
X28474549Y-51747071D01*
X28410044Y-51635344D01*
X28283381Y-51494671D01*
X28130241Y-51383409D01*
X27957313Y-51306416D01*
X27772159Y-51267061D01*
X27772157Y-51267061D01*
X27582865Y-51267061D01*
X27582863Y-51267061D01*
X27397708Y-51306416D01*
X27224780Y-51383409D01*
X27071640Y-51494671D01*
X26944977Y-51635344D01*
X26850331Y-51799276D01*
X26791837Y-51979303D01*
X26791836Y-51979305D01*
X26791837Y-51979305D01*
X26790874Y-51988465D01*
X26770354Y-52044841D01*
X26725768Y-52084986D01*
X26667554Y-52099500D01*
X26505352Y-52099500D01*
X26320197Y-52138855D01*
X26147269Y-52215848D01*
X25994129Y-52327110D01*
X25867466Y-52467783D01*
X25772820Y-52631715D01*
X25714326Y-52811742D01*
X25694540Y-53000000D01*
X16054000Y-53000000D01*
X16054000Y-52333064D01*
X16068124Y-52275589D01*
X16107280Y-52231208D01*
X16162546Y-52210031D01*
X16221333Y-52216882D01*
X16275514Y-52237090D01*
X16275517Y-52237091D01*
X16335127Y-52243500D01*
X18716872Y-52243499D01*
X18776483Y-52237091D01*
X18911331Y-52186796D01*
X19026546Y-52100546D01*
X19112796Y-51985331D01*
X19163091Y-51850483D01*
X19169500Y-51790873D01*
X19169499Y-51024499D01*
X19186112Y-50962500D01*
X19231499Y-50917113D01*
X19293499Y-50900500D01*
X19395721Y-50900500D01*
X19446156Y-50911220D01*
X19487871Y-50941528D01*
X19513652Y-50986182D01*
X19572820Y-51168284D01*
X19667466Y-51332216D01*
X19794129Y-51472889D01*
X19947269Y-51584151D01*
X20120197Y-51661144D01*
X20305352Y-51700500D01*
X20305354Y-51700500D01*
X20494646Y-51700500D01*
X20494648Y-51700500D01*
X20618084Y-51674262D01*
X20679803Y-51661144D01*
X20852730Y-51584151D01*
X20852729Y-51584151D01*
X21005870Y-51472889D01*
X21042943Y-51431716D01*
X21132533Y-51332216D01*
X21227179Y-51168284D01*
X21285674Y-50988256D01*
X21305460Y-50800000D01*
X21285674Y-50611744D01*
X21227179Y-50431716D01*
X21227179Y-50431715D01*
X21132533Y-50267783D01*
X21005870Y-50127110D01*
X20852730Y-50015848D01*
X20679802Y-49938855D01*
X20494648Y-49899500D01*
X20494646Y-49899500D01*
X20404279Y-49899500D01*
X20353844Y-49888780D01*
X20312129Y-49858472D01*
X20286348Y-49813818D01*
X20227179Y-49631715D01*
X20132533Y-49467783D01*
X20030807Y-49354805D01*
X20000840Y-49293362D01*
X20007989Y-49225376D01*
X20041132Y-49182958D01*
X20040150Y-49182074D01*
X20175533Y-49031716D01*
X20270179Y-48867784D01*
X20270178Y-48867784D01*
X20328674Y-48687756D01*
X20348460Y-48499500D01*
X20328674Y-48311244D01*
X20270179Y-48131216D01*
X20270179Y-48131215D01*
X20175533Y-47967283D01*
X20048870Y-47826610D01*
X19946177Y-47752000D01*
X23986540Y-47752000D01*
X24006326Y-47940257D01*
X24064820Y-48120284D01*
X24159466Y-48284216D01*
X24286129Y-48424889D01*
X24439269Y-48536151D01*
X24612197Y-48613144D01*
X24797352Y-48652500D01*
X24797354Y-48652500D01*
X24986646Y-48652500D01*
X24986648Y-48652500D01*
X25110083Y-48626262D01*
X25171803Y-48613144D01*
X25344730Y-48536151D01*
X25497871Y-48424888D01*
X25624533Y-48284216D01*
X25719179Y-48120284D01*
X25777674Y-47940256D01*
X25797460Y-47752000D01*
X25777674Y-47563744D01*
X25719179Y-47383716D01*
X25719179Y-47383715D01*
X25624533Y-47219783D01*
X25497870Y-47079110D01*
X25344730Y-46967848D01*
X25260975Y-46930557D01*
X25214772Y-46894976D01*
X25189943Y-46842210D01*
X25191979Y-46783930D01*
X25220430Y-46733026D01*
X25268997Y-46700758D01*
X25339117Y-46675237D01*
X25485696Y-46578830D01*
X25606092Y-46451218D01*
X25693812Y-46299281D01*
X25729641Y-46179602D01*
X25760921Y-46127318D01*
X25813330Y-46096242D01*
X25874210Y-46093880D01*
X25905354Y-46100500D01*
X26094646Y-46100500D01*
X26094648Y-46100500D01*
X26224551Y-46072888D01*
X26279803Y-46061144D01*
X26452730Y-45984151D01*
X26575611Y-45894873D01*
X26605870Y-45872889D01*
X26732533Y-45732216D01*
X26827179Y-45568284D01*
X26838736Y-45532716D01*
X26885674Y-45388256D01*
X26905460Y-45200000D01*
X26885674Y-45011744D01*
X26827179Y-44831716D01*
X26827179Y-44831715D01*
X26732533Y-44667783D01*
X26605870Y-44527110D01*
X26452730Y-44415848D01*
X26279802Y-44338855D01*
X26094648Y-44299500D01*
X26094646Y-44299500D01*
X25905354Y-44299500D01*
X25905352Y-44299500D01*
X25720197Y-44338855D01*
X25547269Y-44415848D01*
X25394129Y-44527110D01*
X25267466Y-44667783D01*
X25172820Y-44831715D01*
X25114326Y-45011742D01*
X25101008Y-45138462D01*
X25080488Y-45194840D01*
X25035901Y-45234986D01*
X24977687Y-45249500D01*
X24956291Y-45249500D01*
X24874699Y-45259036D01*
X24825742Y-45264759D01*
X24660883Y-45324762D01*
X24514303Y-45421170D01*
X24393908Y-45548780D01*
X24306188Y-45700718D01*
X24297160Y-45730873D01*
X24255870Y-45868790D01*
X24255869Y-45868792D01*
X24255870Y-45868792D01*
X24245668Y-46043934D01*
X24254892Y-46096242D01*
X24276135Y-46216711D01*
X24311752Y-46299281D01*
X24345623Y-46377804D01*
X24450390Y-46518530D01*
X24584783Y-46631300D01*
X24584784Y-46631300D01*
X24584786Y-46631302D01*
X24640228Y-46659145D01*
X24686067Y-46698713D01*
X24707703Y-46755272D01*
X24699975Y-46815332D01*
X24664726Y-46864571D01*
X24623719Y-46884690D01*
X24624104Y-46885554D01*
X24439269Y-46967848D01*
X24286129Y-47079110D01*
X24159466Y-47219783D01*
X24064820Y-47383715D01*
X24006326Y-47563742D01*
X23986540Y-47752000D01*
X19946177Y-47752000D01*
X19895730Y-47715348D01*
X19722802Y-47638355D01*
X19537648Y-47599000D01*
X19537646Y-47599000D01*
X19348354Y-47599000D01*
X19319279Y-47605180D01*
X19264551Y-47604463D01*
X19215463Y-47580255D01*
X19181578Y-47537272D01*
X19169499Y-47483889D01*
X19169499Y-46869130D01*
X19166605Y-46842210D01*
X19163091Y-46809517D01*
X19112796Y-46674669D01*
X19026546Y-46559454D01*
X19026544Y-46559453D01*
X19026544Y-46559452D01*
X18971879Y-46518530D01*
X18922099Y-46481265D01*
X18885527Y-46437505D01*
X18872411Y-46382000D01*
X18885527Y-46326495D01*
X18922099Y-46282734D01*
X19026546Y-46204546D01*
X19112796Y-46089331D01*
X19128060Y-46048403D01*
X19164272Y-45996970D01*
X19221064Y-45969922D01*
X19283821Y-45974223D01*
X19336392Y-46008765D01*
X19394129Y-46072889D01*
X19547269Y-46184151D01*
X19720197Y-46261144D01*
X19905352Y-46300500D01*
X19905354Y-46300500D01*
X20094646Y-46300500D01*
X20094648Y-46300500D01*
X20218083Y-46274262D01*
X20279803Y-46261144D01*
X20452730Y-46184151D01*
X20519372Y-46135733D01*
X20605870Y-46072889D01*
X20626199Y-46050312D01*
X20732533Y-45932216D01*
X20827179Y-45768284D01*
X20885674Y-45588256D01*
X20905460Y-45400000D01*
X20885674Y-45211744D01*
X20827179Y-45031716D01*
X20827179Y-45031715D01*
X20732533Y-44867783D01*
X20605870Y-44727110D01*
X20452730Y-44615848D01*
X20279803Y-44538855D01*
X20183025Y-44518284D01*
X20135919Y-44497311D01*
X20101418Y-44458992D01*
X20090056Y-44424023D01*
X20089701Y-44424139D01*
X20027179Y-44231715D01*
X19932533Y-44067783D01*
X19805872Y-43927112D01*
X19724815Y-43868221D01*
X19684421Y-43818338D01*
X19674380Y-43754941D01*
X19697383Y-43695017D01*
X19747265Y-43654624D01*
X19802538Y-43630015D01*
X19839293Y-43613651D01*
X19992432Y-43502389D01*
X20119095Y-43361716D01*
X20213741Y-43197784D01*
X20215987Y-43190872D01*
X20272236Y-43017756D01*
X20292022Y-42829500D01*
X20272236Y-42641244D01*
X20213741Y-42461216D01*
X20213741Y-42461215D01*
X20119095Y-42297283D01*
X19992432Y-42156610D01*
X19839292Y-42045348D01*
X19666364Y-41968355D01*
X19481210Y-41929000D01*
X19481208Y-41929000D01*
X19293499Y-41929000D01*
X19231499Y-41912387D01*
X19186112Y-41867000D01*
X19169499Y-41805000D01*
X19169499Y-40973130D01*
X19169499Y-40973127D01*
X19163091Y-40913517D01*
X19112796Y-40778669D01*
X19026546Y-40663454D01*
X18911331Y-40577204D01*
X18776483Y-40526909D01*
X18716873Y-40520500D01*
X18716869Y-40520500D01*
X16335130Y-40520500D01*
X16275515Y-40526909D01*
X16221333Y-40547118D01*
X16162546Y-40553969D01*
X16107280Y-40532792D01*
X16068124Y-40488411D01*
X16054000Y-40430936D01*
X16054000Y-36540000D01*
X23644340Y-36540000D01*
X23664936Y-36775407D01*
X23726097Y-37003662D01*
X23726097Y-37003663D01*
X23825965Y-37217829D01*
X23961505Y-37411401D01*
X24128599Y-37578495D01*
X24322171Y-37714035D01*
X24536337Y-37813903D01*
X24764592Y-37875063D01*
X24941032Y-37890500D01*
X24941034Y-37890500D01*
X25058966Y-37890500D01*
X25058968Y-37890500D01*
X25176593Y-37880208D01*
X25235408Y-37875063D01*
X25463663Y-37813903D01*
X25677829Y-37714035D01*
X25871401Y-37578495D01*
X26038495Y-37411401D01*
X26174035Y-37217830D01*
X26273903Y-37003663D01*
X26335063Y-36775408D01*
X26355659Y-36540000D01*
X26335063Y-36304592D01*
X26273903Y-36076337D01*
X26174035Y-35862171D01*
X26038495Y-35668599D01*
X25871401Y-35501505D01*
X25677829Y-35365965D01*
X25463663Y-35266097D01*
X25463662Y-35266096D01*
X25235407Y-35204936D01*
X25058968Y-35189500D01*
X25058966Y-35189500D01*
X24941034Y-35189500D01*
X24941032Y-35189500D01*
X24764592Y-35204936D01*
X24536336Y-35266097D01*
X24322170Y-35365965D01*
X24128598Y-35501505D01*
X23961508Y-35668595D01*
X23825964Y-35862172D01*
X23726097Y-36076337D01*
X23664936Y-36304592D01*
X23644340Y-36540000D01*
X16054000Y-36540000D01*
X16054000Y-33790000D01*
X16070613Y-33728000D01*
X16116000Y-33682613D01*
X16178000Y-33666000D01*
X33676000Y-33666000D01*
X33738000Y-33682613D01*
G37*
G04 #@! TD.AperFunction*
M02*
