G04 #@! TF.GenerationSoftware,KiCad,Pcbnew,7.0.1-3b83917a11~172~ubuntu22.04.1*
G04 #@! TF.CreationDate,2023-07-24T14:11:42+02:00*
G04 #@! TF.ProjectId,mag_touch2x2,6d61675f-746f-4756-9368-3278322e6b69,rev?*
G04 #@! TF.SameCoordinates,Original*
G04 #@! TF.FileFunction,Soldermask,Top*
G04 #@! TF.FilePolarity,Negative*
%FSLAX46Y46*%
G04 Gerber Fmt 4.6, Leading zero omitted, Abs format (unit mm)*
G04 Created by KiCad (PCBNEW 7.0.1-3b83917a11~172~ubuntu22.04.1) date 2023-07-24 14:11:42*
%MOMM*%
%LPD*%
G01*
G04 APERTURE LIST*
G04 Aperture macros list*
%AMRoundRect*
0 Rectangle with rounded corners*
0 $1 Rounding radius*
0 $2 $3 $4 $5 $6 $7 $8 $9 X,Y pos of 4 corners*
0 Add a 4 corners polygon primitive as box body*
4,1,4,$2,$3,$4,$5,$6,$7,$8,$9,$2,$3,0*
0 Add four circle primitives for the rounded corners*
1,1,$1+$1,$2,$3*
1,1,$1+$1,$4,$5*
1,1,$1+$1,$6,$7*
1,1,$1+$1,$8,$9*
0 Add four rect primitives between the rounded corners*
20,1,$1+$1,$2,$3,$4,$5,0*
20,1,$1+$1,$4,$5,$6,$7,0*
20,1,$1+$1,$6,$7,$8,$9,0*
20,1,$1+$1,$8,$9,$2,$3,0*%
G04 Aperture macros list end*
%ADD10C,0.500000*%
%ADD11C,1.500000*%
%ADD12R,2.286000X2.286000*%
%ADD13RoundRect,0.007800X-0.412200X-0.122200X0.412200X-0.122200X0.412200X0.122200X-0.412200X0.122200X0*%
%ADD14RoundRect,0.007800X0.122200X-0.412200X0.122200X0.412200X-0.122200X0.412200X-0.122200X-0.412200X0*%
%ADD15R,1.680000X1.680000*%
%ADD16RoundRect,0.225000X0.225000X0.250000X-0.225000X0.250000X-0.225000X-0.250000X0.225000X-0.250000X0*%
%ADD17C,0.800000*%
G04 APERTURE END LIST*
D10*
X25000000Y-46000000D03*
D11*
X17500000Y-63000000D03*
X32500000Y-62992000D03*
X25000000Y-36540000D03*
D12*
X32512000Y-44540000D03*
X32512000Y-42000000D03*
D13*
X26565000Y-42250000D03*
X26565000Y-42750000D03*
X26565000Y-43250000D03*
X26565000Y-43750000D03*
D14*
X27250000Y-44435000D03*
X27750000Y-44435000D03*
X28250000Y-44435000D03*
X28750000Y-44435000D03*
D13*
X29435000Y-43750000D03*
X29435000Y-43250000D03*
X29435000Y-42750000D03*
X29435000Y-42250000D03*
D14*
X28750000Y-41565000D03*
X28250000Y-41565000D03*
X27750000Y-41565000D03*
X27250000Y-41565000D03*
D15*
X28000000Y-43000000D03*
D16*
X23075000Y-54200000D03*
X21525000Y-54200000D03*
D13*
X26565000Y-48250000D03*
X26565000Y-48750000D03*
X26565000Y-49250000D03*
X26565000Y-49750000D03*
D14*
X27250000Y-50435000D03*
X27750000Y-50435000D03*
X28250000Y-50435000D03*
X28750000Y-50435000D03*
D13*
X29435000Y-49750000D03*
X29435000Y-49250000D03*
X29435000Y-48750000D03*
X29435000Y-48250000D03*
D14*
X28750000Y-47565000D03*
X28250000Y-47565000D03*
X27750000Y-47565000D03*
X27250000Y-47565000D03*
D15*
X28000000Y-49000000D03*
D12*
X17526000Y-50600000D03*
X17526000Y-48060000D03*
D13*
X20565000Y-48250000D03*
X20565000Y-48750000D03*
X20565000Y-49250000D03*
X20565000Y-49750000D03*
D14*
X21250000Y-50435000D03*
X21750000Y-50435000D03*
X22250000Y-50435000D03*
X22750000Y-50435000D03*
D13*
X23435000Y-49750000D03*
X23435000Y-49250000D03*
X23435000Y-48750000D03*
X23435000Y-48250000D03*
D14*
X22750000Y-47565000D03*
X22250000Y-47565000D03*
X21750000Y-47565000D03*
X21250000Y-47565000D03*
D15*
X22000000Y-49000000D03*
D12*
X28810000Y-60100000D03*
X26270000Y-60100000D03*
X23730000Y-60100000D03*
X21190000Y-60100000D03*
X17526000Y-44704000D03*
X17526000Y-42164000D03*
X32512000Y-50470000D03*
X32512000Y-47930000D03*
D13*
X20565000Y-42250000D03*
X20565000Y-42750000D03*
X20565000Y-43250000D03*
X20565000Y-43750000D03*
D14*
X21250000Y-44435000D03*
X21750000Y-44435000D03*
X22250000Y-44435000D03*
X22750000Y-44435000D03*
D13*
X23435000Y-43750000D03*
X23435000Y-43250000D03*
X23435000Y-42750000D03*
X23435000Y-42250000D03*
D14*
X22750000Y-41565000D03*
X22250000Y-41565000D03*
X21750000Y-41565000D03*
X21250000Y-41565000D03*
D15*
X22000000Y-43000000D03*
D17*
X28000000Y-43000000D03*
X28000000Y-49000000D03*
X22000000Y-49000000D03*
X22000000Y-43000000D03*
X19800000Y-54000000D03*
X29600000Y-51800000D03*
X30200000Y-45000500D03*
X19443000Y-48499500D03*
X19386562Y-42829500D03*
X24892000Y-47752000D03*
X26600000Y-53000000D03*
X19200000Y-44600000D03*
X19400000Y-50000000D03*
X20000000Y-45400000D03*
X20400000Y-50800000D03*
X27677511Y-52167561D03*
X26000000Y-45200000D03*
M02*
