G04 #@! TF.GenerationSoftware,KiCad,Pcbnew,7.0.1-3b83917a11~172~ubuntu22.04.1*
G04 #@! TF.CreationDate,2023-07-24T14:11:42+02:00*
G04 #@! TF.ProjectId,mag_touch2x2,6d61675f-746f-4756-9368-3278322e6b69,rev?*
G04 #@! TF.SameCoordinates,Original*
G04 #@! TF.FileFunction,Paste,Top*
G04 #@! TF.FilePolarity,Positive*
%FSLAX46Y46*%
G04 Gerber Fmt 4.6, Leading zero omitted, Abs format (unit mm)*
G04 Created by KiCad (PCBNEW 7.0.1-3b83917a11~172~ubuntu22.04.1) date 2023-07-24 14:11:42*
%MOMM*%
%LPD*%
G01*
G04 APERTURE LIST*
G04 Aperture macros list*
%AMRoundRect*
0 Rectangle with rounded corners*
0 $1 Rounding radius*
0 $2 $3 $4 $5 $6 $7 $8 $9 X,Y pos of 4 corners*
0 Add a 4 corners polygon primitive as box body*
4,1,4,$2,$3,$4,$5,$6,$7,$8,$9,$2,$3,0*
0 Add four circle primitives for the rounded corners*
1,1,$1+$1,$2,$3*
1,1,$1+$1,$4,$5*
1,1,$1+$1,$6,$7*
1,1,$1+$1,$8,$9*
0 Add four rect primitives between the rounded corners*
20,1,$1+$1,$2,$3,$4,$5,0*
20,1,$1+$1,$4,$5,$6,$7,0*
20,1,$1+$1,$6,$7,$8,$9,0*
20,1,$1+$1,$8,$9,$2,$3,0*%
G04 Aperture macros list end*
%ADD10C,0.010000*%
%ADD11RoundRect,0.007800X-0.412200X-0.122200X0.412200X-0.122200X0.412200X0.122200X-0.412200X0.122200X0*%
%ADD12RoundRect,0.007800X0.122200X-0.412200X0.122200X0.412200X-0.122200X0.412200X-0.122200X-0.412200X0*%
%ADD13RoundRect,0.225000X0.225000X0.250000X-0.225000X0.250000X-0.225000X-0.250000X0.225000X-0.250000X0*%
G04 APERTURE END LIST*
D10*
X28530000Y-43530000D02*
X27470000Y-43530000D01*
X27470000Y-42470000D01*
X28530000Y-42470000D01*
X28530000Y-43530000D01*
G36*
X28530000Y-43530000D02*
G01*
X27470000Y-43530000D01*
X27470000Y-42470000D01*
X28530000Y-42470000D01*
X28530000Y-43530000D01*
G37*
X28530000Y-49530000D02*
X27470000Y-49530000D01*
X27470000Y-48470000D01*
X28530000Y-48470000D01*
X28530000Y-49530000D01*
G36*
X28530000Y-49530000D02*
G01*
X27470000Y-49530000D01*
X27470000Y-48470000D01*
X28530000Y-48470000D01*
X28530000Y-49530000D01*
G37*
X22530000Y-49530000D02*
X21470000Y-49530000D01*
X21470000Y-48470000D01*
X22530000Y-48470000D01*
X22530000Y-49530000D01*
G36*
X22530000Y-49530000D02*
G01*
X21470000Y-49530000D01*
X21470000Y-48470000D01*
X22530000Y-48470000D01*
X22530000Y-49530000D01*
G37*
X22530000Y-43530000D02*
X21470000Y-43530000D01*
X21470000Y-42470000D01*
X22530000Y-42470000D01*
X22530000Y-43530000D01*
G36*
X22530000Y-43530000D02*
G01*
X21470000Y-43530000D01*
X21470000Y-42470000D01*
X22530000Y-42470000D01*
X22530000Y-43530000D01*
G37*
D11*
X26565000Y-42250000D03*
X26565000Y-42750000D03*
X26565000Y-43250000D03*
X26565000Y-43750000D03*
D12*
X27250000Y-44435000D03*
X27750000Y-44435000D03*
X28250000Y-44435000D03*
X28750000Y-44435000D03*
D11*
X29435000Y-43750000D03*
X29435000Y-43250000D03*
X29435000Y-42750000D03*
X29435000Y-42250000D03*
D12*
X28750000Y-41565000D03*
X28250000Y-41565000D03*
X27750000Y-41565000D03*
X27250000Y-41565000D03*
D13*
X23075000Y-54200000D03*
X21525000Y-54200000D03*
D11*
X26565000Y-48250000D03*
X26565000Y-48750000D03*
X26565000Y-49250000D03*
X26565000Y-49750000D03*
D12*
X27250000Y-50435000D03*
X27750000Y-50435000D03*
X28250000Y-50435000D03*
X28750000Y-50435000D03*
D11*
X29435000Y-49750000D03*
X29435000Y-49250000D03*
X29435000Y-48750000D03*
X29435000Y-48250000D03*
D12*
X28750000Y-47565000D03*
X28250000Y-47565000D03*
X27750000Y-47565000D03*
X27250000Y-47565000D03*
D11*
X20565000Y-48250000D03*
X20565000Y-48750000D03*
X20565000Y-49250000D03*
X20565000Y-49750000D03*
D12*
X21250000Y-50435000D03*
X21750000Y-50435000D03*
X22250000Y-50435000D03*
X22750000Y-50435000D03*
D11*
X23435000Y-49750000D03*
X23435000Y-49250000D03*
X23435000Y-48750000D03*
X23435000Y-48250000D03*
D12*
X22750000Y-47565000D03*
X22250000Y-47565000D03*
X21750000Y-47565000D03*
X21250000Y-47565000D03*
D11*
X20565000Y-42250000D03*
X20565000Y-42750000D03*
X20565000Y-43250000D03*
X20565000Y-43750000D03*
D12*
X21250000Y-44435000D03*
X21750000Y-44435000D03*
X22250000Y-44435000D03*
X22750000Y-44435000D03*
D11*
X23435000Y-43750000D03*
X23435000Y-43250000D03*
X23435000Y-42750000D03*
X23435000Y-42250000D03*
D12*
X22750000Y-41565000D03*
X22250000Y-41565000D03*
X21750000Y-41565000D03*
X21250000Y-41565000D03*
M02*
